<mxfile host="app.diagrams.net" modified="2024-02-17T13:14:56.448Z" agent="Mozilla/5.0 (Windows NT 10.0; Win64; x64) AppleWebKit/537.36 (KHTML, like Gecko) Chrome/120.0.0.0 YaBrowser/24.1.0.0 Safari/537.36" etag="YsG7ZzKB_m7nPSQrUMUb" version="23.1.2" type="github">
  <diagram id="C5RBs43oDa-KdzZeNtuy" name="Page-1">
    <mxGraphModel dx="1002" dy="617" grid="1" gridSize="10" guides="1" tooltips="1" connect="1" arrows="1" fold="1" page="1" pageScale="1" pageWidth="827" pageHeight="1169" math="0" shadow="0">
      <root>
        <mxCell id="WIyWlLk6GJQsqaUBKTNV-0" />
        <mxCell id="WIyWlLk6GJQsqaUBKTNV-1" parent="WIyWlLk6GJQsqaUBKTNV-0" />
        <mxCell id="IoZDNeQxTwEFJbtVmbN--10" style="edgeStyle=none;curved=1;rounded=0;orthogonalLoop=1;jettySize=auto;html=1;entryX=0.5;entryY=0;entryDx=0;entryDy=0;fontSize=12;startSize=8;endSize=8;" edge="1" parent="WIyWlLk6GJQsqaUBKTNV-1" target="IoZDNeQxTwEFJbtVmbN--23">
          <mxGeometry relative="1" as="geometry">
            <mxPoint x="220" y="210" as="sourcePoint" />
            <mxPoint x="225" y="230" as="targetPoint" />
          </mxGeometry>
        </mxCell>
        <mxCell id="IoZDNeQxTwEFJbtVmbN--16" value="" style="edgeStyle=none;curved=1;rounded=0;orthogonalLoop=1;jettySize=auto;html=1;fontSize=12;startSize=8;endSize=8;" edge="1" parent="WIyWlLk6GJQsqaUBKTNV-1" source="WIyWlLk6GJQsqaUBKTNV-10" target="IoZDNeQxTwEFJbtVmbN--15">
          <mxGeometry relative="1" as="geometry" />
        </mxCell>
        <mxCell id="IoZDNeQxTwEFJbtVmbN--37" value="Да" style="edgeLabel;html=1;align=center;verticalAlign=middle;resizable=0;points=[];fontSize=16;" vertex="1" connectable="0" parent="IoZDNeQxTwEFJbtVmbN--16">
          <mxGeometry x="-0.28" y="-1" relative="1" as="geometry">
            <mxPoint as="offset" />
          </mxGeometry>
        </mxCell>
        <mxCell id="IoZDNeQxTwEFJbtVmbN--47" style="edgeStyle=none;curved=1;rounded=0;orthogonalLoop=1;jettySize=auto;html=1;fontSize=12;startSize=8;endSize=8;exitX=0;exitY=0.5;exitDx=0;exitDy=0;" edge="1" parent="WIyWlLk6GJQsqaUBKTNV-1" source="WIyWlLk6GJQsqaUBKTNV-10">
          <mxGeometry relative="1" as="geometry">
            <mxPoint x="160" y="720" as="targetPoint" />
            <Array as="points">
              <mxPoint x="80" y="830" />
              <mxPoint x="10" y="830" />
            </Array>
          </mxGeometry>
        </mxCell>
        <mxCell id="IoZDNeQxTwEFJbtVmbN--49" value="Нет" style="edgeLabel;html=1;align=center;verticalAlign=middle;resizable=0;points=[];fontSize=16;" vertex="1" connectable="0" parent="IoZDNeQxTwEFJbtVmbN--47">
          <mxGeometry x="-0.6915" y="-2" relative="1" as="geometry">
            <mxPoint as="offset" />
          </mxGeometry>
        </mxCell>
        <mxCell id="WIyWlLk6GJQsqaUBKTNV-10" value="Если длина inputArray[j] &amp;lt;= 3&amp;nbsp;" style="rhombus;whiteSpace=wrap;html=1;shadow=0;fontFamily=Helvetica;fontSize=12;align=center;strokeWidth=1;spacing=6;spacingTop=-4;" parent="WIyWlLk6GJQsqaUBKTNV-1" vertex="1">
          <mxGeometry x="116.25" y="790" width="217.5" height="80" as="geometry" />
        </mxCell>
        <mxCell id="IoZDNeQxTwEFJbtVmbN--4" style="edgeStyle=none;curved=1;rounded=0;orthogonalLoop=1;jettySize=auto;html=1;entryX=0.5;entryY=0;entryDx=0;entryDy=0;fontSize=12;startSize=8;endSize=8;" edge="1" parent="WIyWlLk6GJQsqaUBKTNV-1">
          <mxGeometry relative="1" as="geometry">
            <mxPoint x="223.57142857142856" y="270" as="sourcePoint" />
            <mxPoint x="225" y="330" as="targetPoint" />
          </mxGeometry>
        </mxCell>
        <mxCell id="IoZDNeQxTwEFJbtVmbN--22" value="" style="edgeStyle=none;curved=1;rounded=0;orthogonalLoop=1;jettySize=auto;html=1;fontSize=12;startSize=8;endSize=8;" edge="1" parent="WIyWlLk6GJQsqaUBKTNV-1" source="IoZDNeQxTwEFJbtVmbN--0" target="IoZDNeQxTwEFJbtVmbN--18">
          <mxGeometry relative="1" as="geometry" />
        </mxCell>
        <mxCell id="IoZDNeQxTwEFJbtVmbN--0" value="Начало" style="ellipse;whiteSpace=wrap;html=1;fontSize=16;" vertex="1" parent="WIyWlLk6GJQsqaUBKTNV-1">
          <mxGeometry x="160" y="60" width="120" height="60" as="geometry" />
        </mxCell>
        <mxCell id="IoZDNeQxTwEFJbtVmbN--39" value="" style="edgeStyle=none;curved=1;rounded=0;orthogonalLoop=1;jettySize=auto;html=1;fontSize=12;startSize=8;endSize=8;" edge="1" parent="WIyWlLk6GJQsqaUBKTNV-1" source="IoZDNeQxTwEFJbtVmbN--15" target="IoZDNeQxTwEFJbtVmbN--38">
          <mxGeometry relative="1" as="geometry" />
        </mxCell>
        <mxCell id="IoZDNeQxTwEFJbtVmbN--15" value="outputArray[j] = inputArray[i]&amp;nbsp; &amp;nbsp; &amp;nbsp; &amp;nbsp; &amp;nbsp; &amp;nbsp; &amp;nbsp; &amp;nbsp; &amp;nbsp; &amp;nbsp; &amp;nbsp; &amp;nbsp; &amp;nbsp;&amp;nbsp;" style="whiteSpace=wrap;html=1;shadow=0;strokeWidth=1;spacing=6;spacingTop=-4;" vertex="1" parent="WIyWlLk6GJQsqaUBKTNV-1">
          <mxGeometry x="400" y="800" width="181" height="60" as="geometry" />
        </mxCell>
        <mxCell id="IoZDNeQxTwEFJbtVmbN--18" value="Ввод количества n" style="whiteSpace=wrap;html=1;fontSize=16;" vertex="1" parent="WIyWlLk6GJQsqaUBKTNV-1">
          <mxGeometry x="160" y="150" width="120" height="60" as="geometry" />
        </mxCell>
        <mxCell id="IoZDNeQxTwEFJbtVmbN--23" value="Создание массива inputArray" style="rounded=0;whiteSpace=wrap;html=1;fontSize=16;" vertex="1" parent="WIyWlLk6GJQsqaUBKTNV-1">
          <mxGeometry x="160" y="240" width="120" height="60" as="geometry" />
        </mxCell>
        <mxCell id="IoZDNeQxTwEFJbtVmbN--28" style="edgeStyle=none;curved=1;rounded=0;orthogonalLoop=1;jettySize=auto;html=1;fontSize=12;startSize=8;endSize=8;" edge="1" parent="WIyWlLk6GJQsqaUBKTNV-1" source="IoZDNeQxTwEFJbtVmbN--24">
          <mxGeometry relative="1" as="geometry">
            <mxPoint x="220" y="430" as="targetPoint" />
          </mxGeometry>
        </mxCell>
        <mxCell id="IoZDNeQxTwEFJbtVmbN--24" value="Для i от 0 до&amp;nbsp; &amp;nbsp; n - 1" style="rounded=0;whiteSpace=wrap;html=1;fontSize=16;" vertex="1" parent="WIyWlLk6GJQsqaUBKTNV-1">
          <mxGeometry x="160" y="330" width="120" height="60" as="geometry" />
        </mxCell>
        <mxCell id="IoZDNeQxTwEFJbtVmbN--32" value="" style="edgeStyle=none;curved=1;rounded=0;orthogonalLoop=1;jettySize=auto;html=1;fontSize=12;startSize=8;endSize=8;entryX=0.5;entryY=0;entryDx=0;entryDy=0;" edge="1" parent="WIyWlLk6GJQsqaUBKTNV-1" source="IoZDNeQxTwEFJbtVmbN--27" target="IoZDNeQxTwEFJbtVmbN--30">
          <mxGeometry relative="1" as="geometry" />
        </mxCell>
        <mxCell id="IoZDNeQxTwEFJbtVmbN--27" value="Ввод строки inputString" style="rounded=0;whiteSpace=wrap;html=1;fontSize=16;" vertex="1" parent="WIyWlLk6GJQsqaUBKTNV-1">
          <mxGeometry x="165" y="430" width="120" height="60" as="geometry" />
        </mxCell>
        <mxCell id="IoZDNeQxTwEFJbtVmbN--30" value="Создание массива outputArray" style="rounded=0;whiteSpace=wrap;html=1;fontSize=16;" vertex="1" parent="WIyWlLk6GJQsqaUBKTNV-1">
          <mxGeometry x="165" y="520" width="120" height="60" as="geometry" />
        </mxCell>
        <mxCell id="IoZDNeQxTwEFJbtVmbN--31" style="edgeStyle=none;curved=1;rounded=0;orthogonalLoop=1;jettySize=auto;html=1;exitX=0.5;exitY=0;exitDx=0;exitDy=0;fontSize=12;startSize=8;endSize=8;" edge="1" parent="WIyWlLk6GJQsqaUBKTNV-1">
          <mxGeometry relative="1" as="geometry">
            <mxPoint x="220" y="661" as="sourcePoint" />
            <mxPoint x="220" y="661" as="targetPoint" />
          </mxGeometry>
        </mxCell>
        <mxCell id="IoZDNeQxTwEFJbtVmbN--35" value="" style="edgeStyle=none;curved=1;rounded=0;orthogonalLoop=1;jettySize=auto;html=1;fontSize=12;startSize=8;endSize=8;" edge="1" parent="WIyWlLk6GJQsqaUBKTNV-1" source="IoZDNeQxTwEFJbtVmbN--33" target="IoZDNeQxTwEFJbtVmbN--34">
          <mxGeometry relative="1" as="geometry" />
        </mxCell>
        <mxCell id="IoZDNeQxTwEFJbtVmbN--33" value="Счетчик j =0" style="rounded=0;whiteSpace=wrap;html=1;fontSize=16;" vertex="1" parent="WIyWlLk6GJQsqaUBKTNV-1">
          <mxGeometry x="165" y="600" width="120" height="60" as="geometry" />
        </mxCell>
        <mxCell id="IoZDNeQxTwEFJbtVmbN--36" style="edgeStyle=none;curved=1;rounded=0;orthogonalLoop=1;jettySize=auto;html=1;entryX=0.5;entryY=0;entryDx=0;entryDy=0;fontSize=12;startSize=8;endSize=8;" edge="1" parent="WIyWlLk6GJQsqaUBKTNV-1" source="IoZDNeQxTwEFJbtVmbN--34" target="WIyWlLk6GJQsqaUBKTNV-10">
          <mxGeometry relative="1" as="geometry" />
        </mxCell>
        <mxCell id="IoZDNeQxTwEFJbtVmbN--48" style="edgeStyle=none;curved=1;rounded=0;orthogonalLoop=1;jettySize=auto;html=1;fontSize=12;startSize=8;endSize=8;" edge="1" parent="WIyWlLk6GJQsqaUBKTNV-1" source="IoZDNeQxTwEFJbtVmbN--34">
          <mxGeometry relative="1" as="geometry">
            <mxPoint x="160" y="720" as="targetPoint" />
          </mxGeometry>
        </mxCell>
        <mxCell id="IoZDNeQxTwEFJbtVmbN--34" value="Для i от 0 до&amp;nbsp; &amp;nbsp; n - 1" style="rounded=0;whiteSpace=wrap;html=1;fontSize=16;" vertex="1" parent="WIyWlLk6GJQsqaUBKTNV-1">
          <mxGeometry x="165" y="690" width="120" height="60" as="geometry" />
        </mxCell>
        <mxCell id="IoZDNeQxTwEFJbtVmbN--54" style="edgeStyle=none;curved=1;rounded=0;orthogonalLoop=1;jettySize=auto;html=1;fontSize=12;startSize=8;endSize=8;entryX=1;entryY=0.5;entryDx=0;entryDy=0;" edge="1" parent="WIyWlLk6GJQsqaUBKTNV-1" source="IoZDNeQxTwEFJbtVmbN--38" target="IoZDNeQxTwEFJbtVmbN--34">
          <mxGeometry relative="1" as="geometry">
            <mxPoint x="300" y="720" as="targetPoint" />
          </mxGeometry>
        </mxCell>
        <mxCell id="IoZDNeQxTwEFJbtVmbN--38" value="j = j + 1" style="whiteSpace=wrap;html=1;shadow=0;strokeWidth=1;spacing=6;spacingTop=-4;" vertex="1" parent="WIyWlLk6GJQsqaUBKTNV-1">
          <mxGeometry x="430.5" y="690" width="120" height="60" as="geometry" />
        </mxCell>
        <mxCell id="IoZDNeQxTwEFJbtVmbN--43" value="Конец" style="ellipse;whiteSpace=wrap;html=1;fontSize=16;" vertex="1" parent="WIyWlLk6GJQsqaUBKTNV-1">
          <mxGeometry x="170" y="1020" width="120" height="80" as="geometry" />
        </mxCell>
        <mxCell id="IoZDNeQxTwEFJbtVmbN--45" style="edgeStyle=none;curved=1;rounded=0;orthogonalLoop=1;jettySize=auto;html=1;entryX=0;entryY=0.5;entryDx=0;entryDy=0;fontSize=12;startSize=8;endSize=8;" edge="1" parent="WIyWlLk6GJQsqaUBKTNV-1" source="WIyWlLk6GJQsqaUBKTNV-10" target="WIyWlLk6GJQsqaUBKTNV-10">
          <mxGeometry relative="1" as="geometry" />
        </mxCell>
        <mxCell id="IoZDNeQxTwEFJbtVmbN--50" style="edgeStyle=none;curved=1;rounded=0;orthogonalLoop=1;jettySize=auto;html=1;exitX=0;exitY=0;exitDx=0;exitDy=0;fontSize=12;startSize=8;endSize=8;" edge="1" parent="WIyWlLk6GJQsqaUBKTNV-1" source="WIyWlLk6GJQsqaUBKTNV-10" target="WIyWlLk6GJQsqaUBKTNV-10">
          <mxGeometry relative="1" as="geometry" />
        </mxCell>
        <mxCell id="IoZDNeQxTwEFJbtVmbN--56" style="edgeStyle=none;curved=1;rounded=0;orthogonalLoop=1;jettySize=auto;html=1;entryX=0.5;entryY=0;entryDx=0;entryDy=0;fontSize=12;startSize=8;endSize=8;" edge="1" parent="WIyWlLk6GJQsqaUBKTNV-1" source="IoZDNeQxTwEFJbtVmbN--51" target="IoZDNeQxTwEFJbtVmbN--43">
          <mxGeometry relative="1" as="geometry" />
        </mxCell>
        <mxCell id="IoZDNeQxTwEFJbtVmbN--51" value="Печать outputArray" style="whiteSpace=wrap;html=1;shadow=0;strokeWidth=1;spacing=6;spacingTop=-4;" vertex="1" parent="WIyWlLk6GJQsqaUBKTNV-1">
          <mxGeometry x="170" y="920" width="120" height="60" as="geometry" />
        </mxCell>
        <mxCell id="IoZDNeQxTwEFJbtVmbN--55" style="edgeStyle=none;curved=1;rounded=0;orthogonalLoop=1;jettySize=auto;html=1;entryX=0.463;entryY=-0.1;entryDx=0;entryDy=0;entryPerimeter=0;fontSize=12;startSize=8;endSize=8;" edge="1" parent="WIyWlLk6GJQsqaUBKTNV-1" source="WIyWlLk6GJQsqaUBKTNV-10" target="IoZDNeQxTwEFJbtVmbN--51">
          <mxGeometry relative="1" as="geometry" />
        </mxCell>
        <mxCell id="IoZDNeQxTwEFJbtVmbN--61" value="&#xa;&lt;pre style=&quot;margin: 0px 0px 4px; padding: 10px; box-sizing: border-box; border: 1px solid var(--cib-color-stroke-neutral-primary); background: var(--cib-color-syntax-background-surface); border-radius: var(--cib-border-radius-large); color: rgb(210, 208, 206); font-size: 14px; font-style: normal; font-variant-ligatures: normal; font-variant-caps: normal; font-weight: 400; letter-spacing: normal; orphans: 2; text-align: left; text-indent: 0px; text-transform: none; widows: 2; word-spacing: 0px; -webkit-text-stroke-width: 0px; text-decoration-thickness: initial; text-decoration-style: initial; text-decoration-color: initial;&quot;&gt;&lt;code style=&quot;font-size: var(--cib-type-body1-font-size); line-height: var(--cib-type-body1-line-height); font-weight: var(--cib-type-body1-font-weight); font-variation-settings: var(--cib-type-body1-font-variation-settings);&quot; class=&quot;language-plaintext&quot;&gt;Начало&#xa;&#xa;Пользователь вводит количество строк n&#xa;Создается массив строк inputArray размером n&#xa;Для i от 0 до n-1:&#xa;    Пользователь вводит строку inputString&#xa;    inputArray[i] = inputString&#xa;&#xa;Создается новый пустой массив outputArray&#xa;Счетчик j = 0&#xa;&#xa;Для i от 0 до n-1:&#xa;    Если длина inputArray[i] меньше или равна 3:&#xa;        outputArray[j] = inputArray[i]&#xa;        j увеличивается на 1&#xa;&#xa;Конец&lt;/code&gt;&lt;/pre&gt;&#xa;&#xa;" style="whiteSpace=wrap;html=1;aspect=fixed;fontSize=16;" vertex="1" parent="WIyWlLk6GJQsqaUBKTNV-1">
          <mxGeometry x="310" y="160" width="480" height="480" as="geometry" />
        </mxCell>
      </root>
    </mxGraphModel>
  </diagram>
</mxfile>
